<svg xmlns="http://www.w3.org/2000/svg" width="170" height="29" viewBox="0 0 170 29">
    <g fill="none" fill-rule="evenodd">
        <g fill-rule="nonzero">
            <g>
                <path fill="#58595B" d="M2.094 20.017v3.603H0V.523h2.094v8.87h.06c.796-1.206 1.848-2.22 3.081-2.972 1.251-.77 2.719-1.155 4.403-1.155 2.588 0 4.784.919 6.59 2.756 1.806 1.837 2.71 4.062 2.71 6.676 0 2.628-.904 4.86-2.71 6.697-1.806 1.837-4.002 2.753-6.59 2.748-1.664 0-3.127-.389-4.387-1.166-1.232-.75-2.288-1.755-3.096-2.95l-.06-.01zm0-5.327c-.031 1.975.756 3.874 2.174 5.249 1.449 1.449 3.178 2.173 5.188 2.173 1.958.032 3.84-.756 5.19-2.173 1.4-1.385 2.171-3.281 2.137-5.25.03-1.958-.744-3.844-2.14-5.219-1.35-1.416-3.232-2.204-5.19-2.173-2.012 0-3.741.724-5.188 2.173-1.413 1.366-2.199 3.255-2.17 5.22zM21.172 2.357c-.266-.253-.416-.604-.416-.97 0-.367.15-.718.416-.97.252-.266.603-.417.97-.417.366 0 .716.15.969.416.265.253.416.604.416.97 0 .367-.15.718-.416.97-.253.266-.603.417-.97.417-.366 0-.717-.15-.97-.416zm-.078 3.432h2.094v17.83h-2.094V5.79zM39.078 10.379H36.95c0-.883-.405-1.618-1.216-2.203-.81-.586-1.882-.88-3.215-.88-1.378 0-2.456.24-3.234.717s-1.169 1.111-1.17 1.903c0 .914.289 1.62.867 2.118.615.513 1.36.844 2.154.954l2.785.45c.943.15 1.876.358 2.794.622.871.255 1.63.798 2.154 1.54.572.778.859 1.82.86 3.126 0 1.705-.642 3.035-1.925 3.989-1.284.954-3.043 1.431-5.279 1.431-2.157 0-3.892-.549-5.205-1.647-1.281-1.028-2.01-2.594-1.97-4.235h2.125c-.021 1.088.483 2.12 1.354 2.773.903.719 2.135 1.078 3.696 1.077 1.601 0 2.843-.303 3.726-.908.883-.606 1.323-1.464 1.32-2.576 0-.78-.216-1.4-.646-1.863-.452-.473-1.03-.81-1.664-.969-.74-.196-1.491-.352-2.248-.465l-2.484-.39c-.783-.116-1.545-.342-2.264-.672-.694-.337-1.273-.873-1.66-1.54-.431-.708-.646-1.617-.645-2.725 0-1.54.62-2.715 1.863-3.526 1.242-.81 2.807-1.216 4.696-1.217 1.95 0 3.53.477 4.741 1.431 1.211.955 1.817 2.183 1.818 3.685zM58.138 5.79v2.977c-.21-.255-.434-.503-.678-.745-1.847-1.836-4.085-2.755-6.713-2.756-2.515-.037-4.936.959-6.696 2.756-1.82 1.74-2.83 4.16-2.787 6.676 0 2.606.93 4.831 2.787 6.675 1.858 1.845 4.09 2.769 6.696 2.772 2.628 0 4.866-.924 6.713-2.772.244-.242.466-.493.678-.748v2.996h2.1V5.79h-2.1zm-2.201 14.149c-1.366 1.39-3.232 2.172-5.18 2.172-1.95 0-3.816-.783-5.181-2.172-1.41-1.379-2.19-3.277-2.157-5.25-.029-1.961.751-3.849 2.157-5.219 1.365-1.39 3.232-2.172 5.18-2.172 1.949 0 3.815.783 5.181 2.172 1.397 1.375 2.17 3.26 2.14 5.22.034 1.968-.74 3.865-2.14 5.249z" transform="translate(-20 -59) translate(20 59)"/>
                <path fill="#27AAE1" d="M81.08 14.69c-.007.674-.09 1.345-.247 2.001H66.447c.248 1.006.838 1.868 1.772 2.587.919.714 2.053 1.094 3.217 1.077 1.606.022 3.115-.765 4.016-2.094h4.735c-.615 1.759-1.795 3.264-3.356 4.281-1.595 1.065-3.474 1.623-5.39 1.601-2.692 0-4.975-.909-6.852-2.726-1.876-1.818-2.816-4.06-2.818-6.727 0-2.668.945-4.906 2.834-6.713 1.889-1.807 4.188-2.71 6.897-2.71 2.65 0 4.907.913 6.776 2.74 1.868 1.826 2.802 4.054 2.802 6.683zm-14.566-1.787H76.4c-.212-1.098-.793-2.09-1.647-2.812-.873-.748-1.956-1.123-3.25-1.124-1.293 0-2.391.38-3.294 1.14-.871.708-1.47 1.696-1.694 2.796zM94.537 5.789L100.357 5.789 92.455 14.091 100.357 23.62 94.876 23.62 89.549 17.146 87.608 19.186 87.608 23.62 83.235 23.62 83.235.523 87.608.523 87.608 13.159zM115.415 11.3h-4.192c0-.799-.288-1.42-.861-1.862-.573-.443-1.346-.662-2.31-.662-.925 0-1.618.176-2.08.528-.442.316-.7.83-.692 1.373-.01.565.303 1.087.808 1.343.614.337 1.284.56 1.978.658l2.572.419c.88.139 1.744.361 2.58.664.823.322 1.517.903 1.978 1.655.533.813.8 1.854.798 3.123 0 1.863-.733 3.263-2.201 4.202-1.468.939-3.383 1.405-5.744 1.398-2.322 0-4.175-.55-5.56-1.648-1.385-1.098-2.077-2.56-2.077-4.389h4.227c-.008.724.352 1.403.955 1.803.637.46 1.458.691 2.464.692 1.046 0 1.883-.179 2.51-.537.621-.359.94-.866.94-1.521.024-.59-.279-1.145-.788-1.444-.6-.352-1.276-.558-1.971-.6-.863-.08-1.721-.205-2.571-.372-.872-.165-1.731-.394-2.57-.685-.82-.301-1.515-.87-1.971-1.616-.523-.801-.782-1.836-.777-3.105-.007-1.763.626-3.11 1.898-4.041 1.272-.932 3.037-1.397 5.297-1.397 2.298 0 4.099.528 5.404 1.586 1.305 1.058 1.957 2.536 1.956 4.436zM122.527 5.79v2.617h.062c1.561-2.095 3.542-3.142 5.943-3.14 2.649 0 4.805.892 6.468 2.677 1.663 1.786 2.495 4.044 2.494 6.775 0 2.732-.832 4.985-2.494 6.76-1.662 1.775-3.818 2.663-6.468 2.664-2.421 0-4.403-1.035-5.943-3.105h-.062v7.853h-4.372V5.789h4.372zm1.478 5.096c-.97 1.039-1.5 2.413-1.478 3.833-.023 1.417.507 2.787 1.478 3.82.97 1.022 2.317 1.6 3.726 1.6 1.41 0 2.757-.578 3.726-1.6.97-1.033 1.5-2.403 1.477-3.82.022-1.42-.507-2.794-1.477-3.833-.964-1.031-2.313-1.617-3.726-1.617-1.412 0-2.761.586-3.726 1.617zM160.713 23.62V5.79h3.881v2.463h.062c1.169-1.991 2.79-2.987 4.866-2.987h.368V9.7h-1.016c-1.003-.017-1.972.365-2.695 1.062-.737.688-1.182 1.633-1.242 2.64v10.224l-4.224-.006z" transform="translate(-20 -59) translate(20 59)"/>
                <path fill="#F7941D" d="M156.63 20.844c-1.82 2.233-4.099 3.504-6.831 3.844-2.733.34-5.198-.4-7.398-2.198-2.174-1.789-3.36-4.05-3.57-6.802-.212-2.752.595-5.23 2.423-7.452 1.717-2.096 3.853-3.361 6.412-3.771.133-.022.267-.04.411-.062.447-.052.896-.08 1.346-.08l.31.102-.166.091-.03.02c-.079.003-.158.01-.237.022-.563.069-1.118.194-1.656.373-1.615.502-3.006 1.467-4.173 2.897-1.553 1.89-2.24 4.018-2.056 6.365.185 2.347 1.192 4.274 3.052 5.794 1.86 1.52 3.967 2.158 6.299 1.863 2.332-.295 4.274-1.366 5.836-3.26 1.562-1.894 2.23-4.007 2.054-6.35-.05-.77-.214-1.527-.483-2.25.5 1.075.796 2.233.874 3.416.203 2.754-.6 5.224-2.417 7.438z" transform="translate(-20 -59) translate(20 59)"/>
                <path fill="#27AAE1" d="M149.397 5.69c-2.034.257-3.723 1.202-5.066 2.836-1.253 1.531-1.863 3.227-1.809 5.097.226-1.063.71-2.054 1.408-2.887 1.152-1.398 2.59-2.202 4.316-2.415 1.736-.215 3.288.247 4.658 1.367 1.37 1.119 2.144 2.577 2.277 4.316.137 1.706-.414 3.396-1.53 4.694-.678.857-1.558 1.53-2.56 1.961 1.84-.31 3.39-1.242 4.645-2.782 1.345-1.635 1.944-3.474 1.797-5.517-.147-2.044-1.037-3.731-2.672-5.063-1.612-1.317-3.434-1.852-5.464-1.607z" transform="translate(-20 -59) translate(20 59)"/>
                <path fill="#F7941D" d="M149.724 4.428L149.561 4.519 149.53 4.54 149.223 4.704 149.17 4.735 147.187 5.856 147.608 4.982 147.641 4.929 147.784 4.622 147.659 4.467 147.599 4.386 146.941 3.532 149.17 4.243 149.417 4.325z" transform="translate(-20 -59) translate(20 59)"/>
            </g>
        </g>
    </g>
</svg>
